<?xml version="1.0" standalone="no"?><!DOCTYPE svg PUBLIC "-//W3C//DTD SVG 1.1//EN" "http://www.w3.org/Graphics/SVG/1.1/DTD/svg11.dtd"><svg t="1526300844428" class="icon" style="" viewBox="0 0 1024 1024" version="1.1" xmlns="http://www.w3.org/2000/svg" p-id="19888" xmlns:xlink="http://www.w3.org/1999/xlink" width="200" height="200"><defs><style type="text/css"></style></defs><path d="M413.744 217.344h205.504s62-3.008 67.008-72.992v-50s-6-65.504-82.496-65.504H416.256s-69.504-4.496-78.496 70.496v48.496c-0.016 0.016 3.984 69.504 75.984 69.504z" fill="" p-id="19889"></path><path d="M816 92h-70.72v98.8c0 44.192-35.808 80-80 80h-308c-44.192 0-80-35.808-80-80V92H208c-44.192 0-80 35.92-80 80.272v742.672c0 44.32 35.808 80.256 80 80.256h608c44.192 0 80-35.936 80-80.256V172.272C896 127.936 860.192 92 816 92z m-79.728 701.92H287.728c-17.664 0-32-14.32-32-32 0-17.664 14.336-32 32-32h448.528c17.664 0 32 14.336 32 32 0.016 17.696-14.32 32-31.984 32z m0-196.128H287.728c-17.664 0-32-14.32-32-32 0-17.664 14.336-32 32-32h448.528c17.664 0 32 14.336 32 32 0.016 17.696-14.32 32-31.984 32z m0-196.112H287.728c-17.664 0-32-14.336-32-32s14.336-32 32-32h448.528c17.664 0 32 14.336 32 32s-14.32 32-31.984 32z" fill="" p-id="19890"></path></svg>