<svg xmlns="http://www.w3.org/2000/svg" viewBox="0 0 40.19 27.72"><defs><style>.cls-1{fill:#0d2b7c;}.cls-2{fill:#ffe600;}.cls-3{fill:#fcfcfd;}.cls-4{fill:#ffe500;}.cls-5{fill:#fcfcfc;}</style></defs><title>资源 2</title><g id="图层_2" data-name="图层 2"><g id="图层_1-2" data-name="图层 1"><g id="_编组_" data-name="&lt;编组&gt;"><path id="_复合路径_" data-name="&lt;复合路径&gt;" class="cls-1" d="M40.19,13.52a11.59,11.59,0,0,1-4.12,9.09,18.75,18.75,0,0,1-7,3.83,26.74,26.74,0,0,1-4.84,1,34.19,34.19,0,0,1-4.85.24,32.23,32.23,0,0,1-4.26-.37A25,25,0,0,1,8.94,25.6a16.7,16.7,0,0,1-5.6-3.8A11.27,11.27,0,0,1,.11,15.2,10.37,10.37,0,0,1,1.26,8.56a13.46,13.46,0,0,1,3.61-4,21.91,21.91,0,0,1,8-3.7A29.24,29.24,0,0,1,18.07.07a29.26,29.26,0,0,1,9.94,1A21.35,21.35,0,0,1,35.4,4.62a13.08,13.08,0,0,1,3.73,4.27A9.11,9.11,0,0,1,40.19,13ZM.85,12.27a7.83,7.83,0,0,0,.41,3.5,10.68,10.68,0,0,0,3,4.37,18.2,18.2,0,0,0,5.66,3.42A27.89,27.89,0,0,0,20.66,25.4a28.93,28.93,0,0,0,6.22-.77,21.9,21.9,0,0,0,7.26-3.08A12.6,12.6,0,0,0,38.44,17a8.23,8.23,0,0,0,1-4.33c0-.14,0-.17-.19-.14l-.85.21a50.58,50.58,0,0,0-6.79,2.17c-.16.06-.19.11-.11.29a1.65,1.65,0,0,1-.15,1.77,2.08,2.08,0,0,1-1.95.85c-.17,0-.22,0-.22.19a1.33,1.33,0,0,1-.23.75,2.26,2.26,0,0,1-2,1.08c-.26,0-.37,0-.48.29a2.12,2.12,0,0,1-2.36,1.16c-.07,0-.13-.05-.19,0a2,2,0,0,1-1.93.71,3.83,3.83,0,0,1-1.52-.49.2.2,0,0,0-.27,0,2.27,2.27,0,0,1-3.58-.69c-.05-.1-.08-.13-.19-.1A2,2,0,0,1,14.22,20c-.23-.29-.41-.5-.8-.39,0,0,0,0-.05,0a2.32,2.32,0,0,1-2-1.64.19.19,0,0,0-.23-.17,1.93,1.93,0,0,1-2-2.54c0-.12,0-.17-.09-.23a8.31,8.31,0,0,0-.76-.44A33.93,33.93,0,0,0,.85,12.27ZM15.22,6.63c-.4.1-.74.17-1.06.28a6.52,6.52,0,0,1-3.42.21A32.58,32.58,0,0,1,5.29,5.47a.37.37,0,0,0-.41.06A18.51,18.51,0,0,0,3.51,6.82,9.91,9.91,0,0,0,1.1,11c-.12.43-.12.44.3.55,1.44.38,2.89.68,4.3,1.15A15.52,15.52,0,0,1,9.49,14.4c.12.07.17,0,.24-.05a2,2,0,0,1,2.61.13.22.22,0,0,0,.32,0,2.25,2.25,0,0,1,2.95.62.22.22,0,0,0,.31.11,2.07,2.07,0,0,1,2.63,1.89c0,.13,0,.29,0,.37s.25,0,.37.05l.09,0a2.29,2.29,0,0,1,1.74,3.09c0,.08-.07.15.06.21a3.79,3.79,0,0,0,1.28.38,1.58,1.58,0,0,0,1-.24c.14-.09.2-.18,0-.34-.49-.52-1-1.05-1.45-1.58a1.07,1.07,0,0,1-.15-.22.2.2,0,0,1,0-.24.22.22,0,0,1,.26-.07.83.83,0,0,1,.3.18c.59.5,1.14,1,1.69,1.59a.61.61,0,0,0,.24.18,1.4,1.4,0,0,0,1.35-.26.7.7,0,0,0,.07-1.13c-.59-.66-1.19-1.32-1.78-2a1.33,1.33,0,0,1-.14-.19.21.21,0,0,1,0-.25.2.2,0,0,1,.24-.07.7.7,0,0,1,.32.19c.7.59,1.33,1.24,2,1.88a1.44,1.44,0,0,0,2.26-.54A1,1,0,0,0,28,17l-2.42-2.42a.75.75,0,0,1-.19-.24.23.23,0,0,1,.31-.31,1.61,1.61,0,0,1,.34.24c.88.8,1.79,1.58,2.66,2.39a1.4,1.4,0,0,0,1.88,0,1,1,0,0,0,.25-1,1.22,1.22,0,0,0-.41-.59c-2.14-1.86-4.27-3.72-6.45-5.53a12.08,12.08,0,0,0-1.82-1.35,2.2,2.2,0,0,0-1.33-.32,3.83,3.83,0,0,0-1.66.7C18.5,9,17.9,9.5,17.26,10a3.45,3.45,0,0,1-3.87.23.86.86,0,0,1-.15-1.44ZM21,4.88A6.48,6.48,0,0,0,16.4,6.61c-.9.82-1.7,1.73-2.53,2.61-.22.23-.2.31.08.47a.59.59,0,0,0,.14.06,2.67,2.67,0,0,0,2.18-.08,7,7,0,0,0,1-.65,18.86,18.86,0,0,1,2.12-1.55,3,3,0,0,1,3.38.1c.38.27.76.54,1.12.83,2.32,1.9,4.58,3.88,6.84,5.84a.27.27,0,0,0,.33.06c.41-.18.82-.36,1.24-.52a46.55,46.55,0,0,1,6.81-2.09c.15,0,.21-.06.17-.24s-.16-.64-.27-1a11,11,0,0,0-3.39-4.75.18.18,0,0,0-.23,0l-1,.41A12.59,12.59,0,0,1,29.79,7a12.19,12.19,0,0,1-5-1.21A9.1,9.1,0,0,0,21,4.88Zm-15.19,0L6,4.94a46.34,46.34,0,0,0,4.49,1.34,6.07,6.07,0,0,0,3.38-.07,9,9,0,0,1,2.29-.44.36.36,0,0,0,.2-.08,7.1,7.1,0,0,1,4.6-1.56,9.27,9.27,0,0,1,4.17,1,10.81,10.81,0,0,0,7.74.73,13.81,13.81,0,0,0,2-.71L34.62,5a18,18,0,0,0-3.27-1.89A26.94,26.94,0,0,0,20.41.78a28.44,28.44,0,0,0-6.82.72A22.16,22.16,0,0,0,6,4.69C5.92,4.74,5.83,4.77,5.78,4.87ZM12.22,16c0-.16,0-.27-.06-.38a1.21,1.21,0,0,0-1.08-1,1.24,1.24,0,0,0-1.26.8,1.22,1.22,0,0,0,1.95,1.32c.05,0,.09-.13.18-.07a.2.2,0,0,1,.08.22,2.33,2.33,0,0,0,0,.53,1.53,1.53,0,0,0,1.62,1.4,1.28,1.28,0,0,0,.59-.24c.07-.05.16-.12.26-.05s.07.15.06.24a.92.92,0,0,0,0,.33,1.45,1.45,0,0,0,1.23,1,1.07,1.07,0,0,0,.88-.31c.07-.07.15-.16.27-.11s.11.15.12.26a.77.77,0,0,0,0,.15,1.55,1.55,0,0,0,1.61,1.33A1.56,1.56,0,0,0,19,18.34a1.65,1.65,0,0,0-1,.1c-.09,0-.2.09-.29,0s0-.2,0-.29a3.3,3.3,0,0,0,.15-.62,1.34,1.34,0,0,0-1.39-1.59,1.28,1.28,0,0,0-.9.36c-.18.16-.28.12-.32-.12l0-.15a1.17,1.17,0,0,0-.86-1,1.65,1.65,0,0,0-1.66.4A3.06,3.06,0,0,0,12.22,16Z"/><path id="_路径_" data-name="&lt;路径&gt;" class="cls-2" d="M.85,12.27a33.93,33.93,0,0,1,7.44,2.3,8.31,8.31,0,0,1,.76.44c.09.06.13.11.09.23a1.93,1.93,0,0,0,2,2.54.19.19,0,0,1,.23.17,2.32,2.32,0,0,0,2,1.64s0,0,.05,0c.39-.11.57.1.8.39a2,2,0,0,0,2.16.77c.11,0,.14,0,.19.1a2.27,2.27,0,0,0,3.58.69.2.2,0,0,1,.27,0,3.83,3.83,0,0,0,1.52.49,2,2,0,0,0,1.93-.71c.06-.08.12,0,.19,0a2.12,2.12,0,0,0,2.36-1.16c.11-.26.22-.29.48-.29a2.26,2.26,0,0,0,2-1.08,1.33,1.33,0,0,0,.23-.75c0-.15.05-.21.22-.19a2.08,2.08,0,0,0,1.95-.85,1.65,1.65,0,0,0,.15-1.77c-.08-.18,0-.23.11-.29a50.58,50.58,0,0,1,6.79-2.17l.85-.21c.14,0,.18,0,.19.14a8.23,8.23,0,0,1-1,4.33,12.6,12.6,0,0,1-4.3,4.58,21.9,21.9,0,0,1-7.26,3.08,28.93,28.93,0,0,1-6.22.77A27.89,27.89,0,0,1,9.93,23.56a18.2,18.2,0,0,1-5.66-3.42,10.68,10.68,0,0,1-3-4.37A7.83,7.83,0,0,1,.85,12.27Z"/><path id="_路径_2" data-name="&lt;路径&gt;" class="cls-3" d="M15.22,6.63l-2,2.13a.86.86,0,0,0,.15,1.44A3.45,3.45,0,0,0,17.26,10c.64-.47,1.24-1,1.91-1.43a3.83,3.83,0,0,1,1.66-.7,2.2,2.2,0,0,1,1.33.32A12.08,12.08,0,0,1,24,9.51c2.18,1.81,4.31,3.67,6.45,5.53a1.22,1.22,0,0,1,.41.59,1,1,0,0,1-.25,1,1.4,1.4,0,0,1-1.88,0c-.87-.81-1.78-1.59-2.66-2.39a1.61,1.61,0,0,0-.34-.24.23.23,0,0,0-.31.31.75.75,0,0,0,.19.24L28,17a1,1,0,0,1,.35,1.13,1.44,1.44,0,0,1-2.26.54c-.66-.64-1.29-1.29-2-1.88a.7.7,0,0,0-.32-.19.2.2,0,0,0-.24.07.21.21,0,0,0,0,.25,1.33,1.33,0,0,0,.14.19c.59.67,1.19,1.33,1.78,2a.7.7,0,0,1-.07,1.13,1.4,1.4,0,0,1-1.35.26.61.61,0,0,1-.24-.18c-.55-.55-1.1-1.09-1.69-1.59a.83.83,0,0,0-.3-.18.22.22,0,0,0-.26.07.2.2,0,0,0,0,.24,1.07,1.07,0,0,0,.15.22c.48.53,1,1.06,1.45,1.58.15.16.09.25,0,.34a1.58,1.58,0,0,1-1,.24,3.79,3.79,0,0,1-1.28-.38c-.13-.06-.09-.13-.06-.21A2.29,2.29,0,0,0,19,17.59l-.09,0c-.12,0-.3.05-.37-.05s0-.24,0-.37a2.07,2.07,0,0,0-2.63-1.89.22.22,0,0,1-.31-.11,2.25,2.25,0,0,0-2.95-.62.22.22,0,0,1-.32,0,2,2,0,0,0-2.61-.13c-.07.06-.12.12-.24.05A15.52,15.52,0,0,0,5.7,12.71c-1.41-.47-2.86-.77-4.3-1.15C1,11.45,1,11.44,1.1,11A9.91,9.91,0,0,1,3.51,6.82,18.51,18.51,0,0,1,4.88,5.53a.37.37,0,0,1,.41-.06,32.58,32.58,0,0,0,5.45,1.65,6.52,6.52,0,0,0,3.42-.21C14.48,6.8,14.82,6.73,15.22,6.63Z"/><path id="_路径_3" data-name="&lt;路径&gt;" class="cls-3" d="M21,4.88a9.1,9.1,0,0,1,3.8.9,12.19,12.19,0,0,0,5,1.21,12.59,12.59,0,0,0,4.58-.87l1-.41a.18.18,0,0,1,.23,0A11,11,0,0,1,39,10.49c.11.32.18.64.27,1s0,.21-.17.24a46.55,46.55,0,0,0-6.81,2.09c-.42.16-.83.34-1.24.52a.27.27,0,0,1-.33-.06c-2.26-2-4.52-3.94-6.84-5.84-.36-.29-.74-.56-1.12-.83a3,3,0,0,0-3.38-.1A18.86,18.86,0,0,0,17.23,9a7,7,0,0,1-1,.65,2.67,2.67,0,0,1-2.18.08A.59.59,0,0,1,14,9.69c-.28-.16-.3-.24-.08-.47.83-.88,1.63-1.79,2.53-2.61A6.48,6.48,0,0,1,21,4.88Z"/><path id="_路径_4" data-name="&lt;路径&gt;" class="cls-4" d="M5.78,4.87c0-.1.14-.13.21-.18a22.16,22.16,0,0,1,7.6-3.19A28.44,28.44,0,0,1,20.41.78a26.94,26.94,0,0,1,10.94,2.3A18,18,0,0,1,34.62,5l.19.14a13.81,13.81,0,0,1-2,.71,10.81,10.81,0,0,1-7.74-.73,9.27,9.27,0,0,0-4.17-1,7.1,7.1,0,0,0-4.6,1.56.36.36,0,0,1-.2.08,9,9,0,0,0-2.29.44,6.07,6.07,0,0,1-3.38.07A46.34,46.34,0,0,1,6,4.94Z"/><path id="_路径_5" data-name="&lt;路径&gt;" class="cls-5" d="M12.22,16a3.06,3.06,0,0,1,.45-.57,1.65,1.65,0,0,1,1.66-.4,1.17,1.17,0,0,1,.86,1l0,.15c0,.24.14.28.32.12a1.28,1.28,0,0,1,.9-.36,1.34,1.34,0,0,1,1.39,1.59,3.3,3.3,0,0,1-.15.62c0,.09-.09.2,0,.29s.2,0,.29,0a1.65,1.65,0,0,1,1-.1,1.56,1.56,0,0,1-.31,3.07,1.55,1.55,0,0,1-1.61-1.33.77.77,0,0,1,0-.15c0-.11,0-.22-.12-.26s-.2,0-.27.11a1.07,1.07,0,0,1-.88.31,1.45,1.45,0,0,1-1.23-1,.92.92,0,0,1,0-.33c0-.09,0-.19-.06-.24s-.19,0-.26.05a1.28,1.28,0,0,1-.59.24A1.53,1.53,0,0,1,12,17.45a2.33,2.33,0,0,1,0-.53A.2.2,0,0,0,12,16.7c-.09-.06-.13,0-.18.07a1.22,1.22,0,0,1-1.95-1.32,1.24,1.24,0,0,1,1.26-.8,1.21,1.21,0,0,1,1.08,1C12.18,15.76,12.19,15.87,12.22,16Z"/></g></g></g></svg>