<svg xmlns="http://www.w3.org/2000/svg" viewBox="0 0 49.68 57.34" height="64" width="64"><defs><style>.cls-1{fill:#e38669;}.cls-2{fill:#e8a389;}.cls-3{opacity:0.24;}.cls-4{fill:#da7756;}.cls-5{fill:#0a0a0a;}.cls-6{fill:#fff;}.cls-7{fill:#1e0a0a;}.cls-8{opacity:0.38;}.cls-9{fill:#ca6040;}.cls-10{fill:#ab6849;}.cls-11{fill:#472a1d;}</style></defs><title>资源 9</title><g id="图层_2" data-name="图层 2"><g id="menu_Nav_上边菜单" data-name="menu Nav 上边菜单"><g id="_剪切组_" data-name="&lt;剪切组&gt;"><g id="_编组_" data-name="&lt;编组&gt;"><g id="_编组_2" data-name="&lt;编组&gt;"><g id="_编组_3" data-name="&lt;编组&gt;"><ellipse id="_路径_" data-name="&lt;路径&gt;" class="cls-1" cx="11.17" cy="18.81" rx="2.19" ry="4.18" transform="translate(-0.81 0.51) rotate(-2.51)"/><polygon id="_路径_2" data-name="&lt;路径&gt;" class="cls-2" points="33.7 41.29 26.57 47.25 18.52 41.29 18.52 22.45 33.7 22.45 33.7 41.29"/><ellipse id="_路径_3" data-name="&lt;路径&gt;" class="cls-2" cx="40.8" cy="17.73" rx="3.17" ry="2.11" transform="translate(21.82 57.96) rotate(-88.22)"/><ellipse id="_路径_4" data-name="&lt;路径&gt;" class="cls-2" cx="26.02" cy="20.59" rx="14.9" ry="15.87"/><g id="_编组_4" data-name="&lt;编组&gt;" class="cls-3"><path id="_路径_5" data-name="&lt;路径&gt;" class="cls-4" d="M11.11,20.74c0,8.75,6.77,15.85,15.13,15.87L26,4.87C17.77,5,11.11,12.06,11.11,20.74Z"/></g><g id="_编组_5" data-name="&lt;编组&gt;"><circle id="_路径_6" data-name="&lt;路径&gt;" class="cls-5" cx="21.07" cy="18.67" r="1.69"/><ellipse id="_路径_7" data-name="&lt;路径&gt;" class="cls-6" cx="20.86" cy="18.12" rx="0.63" ry="0.45"/><ellipse id="_路径_8" data-name="&lt;路径&gt;" class="cls-6" cx="21.43" cy="19.43" rx="0.26" ry="0.18"/></g><g id="_编组_6" data-name="&lt;编组&gt;"><circle id="_路径_9" data-name="&lt;路径&gt;" class="cls-5" cx="32.87" cy="18.87" r="1.69"/><ellipse id="_路径_10" data-name="&lt;路径&gt;" class="cls-6" cx="32.66" cy="18.32" rx="0.63" ry="0.45"/><ellipse id="_路径_11" data-name="&lt;路径&gt;" class="cls-6" cx="33.23" cy="19.63" rx="0.26" ry="0.18"/></g><path id="_路径_12" data-name="&lt;路径&gt;" class="cls-7" d="M17.34,15.64a2.06,2.06,0,0,1,.27-.19,6.2,6.2,0,0,1,.78-.39l.55-.19.64-.14a5.35,5.35,0,0,1,.7-.08,4.45,4.45,0,0,1,.73,0l.37,0,.36.06a5.27,5.27,0,0,1,.68.19,3.73,3.73,0,0,1,.61.26l.27.14.24.16.21.15.19.15c.1.1.2.18.27.26l.17.18.05.06-.08,0-.22-.1L23.8,16l-.21-.08a2.18,2.18,0,0,0-.23-.09l-.25-.09-.27-.09-.58-.15-.32-.06-.15,0-.17,0-.32,0-.33,0c-.12,0-.23.23-.34.23s-.11.25-.16.25H20.3c-.05,0-.11-.25-.16-.25s-.11-.12-.17-.12a3.06,3.06,0,0,0-.32,0c-.42,0-.81,0-1.16.09l-.83.11-.23,0Z"/><path id="_路径_13" data-name="&lt;路径&gt;" class="cls-7" d="M29.68,15.51a2.06,2.06,0,0,1,.27-.19,4.65,4.65,0,0,1,.78-.39c.17-.07.35-.13.55-.19a5.47,5.47,0,0,1,.64-.15,5.16,5.16,0,0,1,.7-.08h.73l.36,0a3.37,3.37,0,0,1,.36.06,5,5,0,0,1,.69.19,4.85,4.85,0,0,1,.61.25l.27.15.24.15.21.16c.06.05.13.09.18.14s.21.18.28.26l.16.18.06.07-.08,0L36.47,16l-.34-.14-.2-.09-.23-.09-.25-.09-.27-.08a5.08,5.08,0,0,0-.59-.15l-.31-.07-.16,0-.16,0-.33,0-.33,0c-.11,0-.22.31-.33.31s-.11.31-.17.31h-.16c-.06,0-.11-.32-.17-.32s-.11-.15-.16-.15-.21-.08-.32-.07c-.42,0-.82,0-1.16.08l-.83.11-.24,0Z"/><g id="_编组_7" data-name="&lt;编组&gt;" class="cls-8"><path id="_路径_14" data-name="&lt;路径&gt;" class="cls-9" d="M21.69,29.06l.11,0,.32.09.5.13.64.14.37.07.39.06q.4.06.84.09l.45,0h.45c.16,0,.31,0,.46,0l.23,0,.23,0c.15,0,.3-.05.45-.07l.45-.1.21-.07.22-.07.2-.07.11,0,.1,0,.39-.17.18-.1.09,0,.09-.05.34-.2.31-.2.27-.21.13-.09.12-.1.21-.17.1-.08.08-.07.25-.22.09-.08-.05.1-.17.3-.06.09-.07.11-.17.23-.21.25a2.91,2.91,0,0,1-.24.27l-.29.27a1.14,1.14,0,0,1-.16.14l-.17.13-.08.07-.1.06-.19.13a4,4,0,0,1-.41.24,5.28,5.28,0,0,1-.91.38l-.25.07a1.83,1.83,0,0,1-.25.06,4.54,4.54,0,0,1-.51.09l-.25,0-.26,0-.13.2s-.08.19-.12.19h-.26a6.35,6.35,0,0,1-1-.28,6.62,6.62,0,0,1-.89-.3,8.21,8.21,0,0,1-.77-.31c-.12-.05-.22-.12-.33-.17l-.29-.16a4.09,4.09,0,0,1-.45-.27A2.5,2.5,0,0,1,21.69,29.06Z"/></g><path id="_路径_15" data-name="&lt;路径&gt;" class="cls-10" d="M10.48,16.57l0,.2c0,.12,0,.29-.07.49s0,.21,0,.32,0,.23,0,.36l0,.37c0,.13,0,.26,0,.38s0,.26,0,.39,0,.25,0,.37,0,.23,0,.34,0,.22.05.32l0,.14,0,.13,0,.22c0,.12,0,.19,0,.19a1.12,1.12,0,0,1-.15-.13l-.15-.18a2.5,2.5,0,0,1-.16-.24L10,20.09c0-.06-.05-.11-.07-.17a2.32,2.32,0,0,1-.13-.37.8.8,0,0,1,0-.21,1.55,1.55,0,0,1,0-.21c0-.07,0-.15,0-.22a1.62,1.62,0,0,0,0-.22,3.27,3.27,0,0,1,0-.44,2.7,2.7,0,0,1,.08-.41c0-.13.08-.26.12-.37s.1-.22.15-.32a2.25,2.25,0,0,1,.29-.43A1.13,1.13,0,0,1,10.48,16.57Z"/><g id="_剪切组_2" data-name="&lt;剪切组&gt;"><path id="_剪贴路径_" data-name="&lt;剪贴路径&gt;" class="cls-6" d="M44.85,43.53,33.7,37.43s-3.8,7.28-8.46,7.16c-2.18-.06-5.46-3.68-6.72-7.16L5.44,43.73a1.08,1.08,0,0,0-.54.59L0,57.33H49.68l-4.33-13.2A1.1,1.1,0,0,0,44.85,43.53Z"/></g><g id="_编组_8" data-name="&lt;编组&gt;" class="cls-8"><path id="_路径_16" data-name="&lt;路径&gt;" class="cls-9" d="M24.84,31.82l.13,0,.33.07.46.08a4.6,4.6,0,0,0,.52.06,4.47,4.47,0,0,0,.52,0L27,32l.11,0,.11,0,.17-.05.14-.05.12,0-.09.09a.55.55,0,0,1-.11.1.71.71,0,0,1-.17.11,1,1,0,0,1-.21.11l-.26.07-.14,0-.14,0h-.29l-.29,0-.28-.07a2.85,2.85,0,0,1-.45-.17L25,31.9Z"/></g><path id="_路径_17" data-name="&lt;路径&gt;" class="cls-6" d="M14,47.94c.11-.13.21-.26.33-.38s.37-.39.56-.58a.25.25,0,0,1,.16-.06,5.76,5.76,0,0,1,2,.49,2.17,2.17,0,0,1,.56.39c.25.23.2.49-.1.66a1.91,1.91,0,0,1-.73.21c-.1,0-.12,0-.12-.11,0-.31,0-.61,0-.92,0-.08,0-.11-.11-.13l-.75-.21h-.09s0,.07,0,.1c0,.63,0,1.25,0,1.87a.25.25,0,0,0,0,.15l.82.72.08,0v-.31c0-.21,0-.43,0-.65s0-.14.14-.14a7.66,7.66,0,0,0,.83,0,1.77,1.77,0,0,0,1-.33.62.62,0,0,0,.2-.76,1.52,1.52,0,0,0-.59-.64,4.43,4.43,0,0,0-1.64-.66c-.38-.08-.77-.12-1.16-.18l-.07,0,.29-.28s.08,0,.13,0a6.81,6.81,0,0,1,2.15.67,2.34,2.34,0,0,1,.79.6,4.38,4.38,0,0,1,.28.42.43.43,0,0,0,0-.16,1,1,0,0,0-.34-.6,3.86,3.86,0,0,0-1.46-.89c-.38-.14-.77-.23-1.16-.35l-.08,0,.49-.48.27-.27a.31.31,0,0,1,.49,0l2.18,2.2.44.45a.31.31,0,0,1,0,.48c-.87.89-1.75,1.77-2.63,2.66a.31.31,0,0,1-.48,0l-2.62-2.66a1.18,1.18,0,0,1-.13-.18Z"/><path id="_路径_18" data-name="&lt;路径&gt;" class="cls-6" d="M31.07,47.11v.53h-4c-.21,0-.25,0-.25.26v.75c0,.19,0,.23.24.23h1.54v.54H27.07a.7.7,0,0,1-.71-.7v-.94A.69.69,0,0,1,27,47.1h4Z"/><path id="_路径_19" data-name="&lt;路径&gt;" class="cls-6" d="M26.11,49.43h-.47V48.06h0l-.83,1.33L24,48.06h0v1.37h-.47V47.1h.46a.26.26,0,0,1,.09.09l.71,1.14.07.11.18-.29.6-1a.14.14,0,0,1,.15-.08h.4Z"/><path id="_路径_20" data-name="&lt;路径&gt;" class="cls-6" d="M21.1,48.67v.75h-.48v-1.3h1.83c.16,0,.21-.06.21-.24s-.05-.24-.21-.24H20.62V47.1h1.85a.6.6,0,0,1,.7.57.93.93,0,0,1-.13.76.52.52,0,0,1-.46.24H21.1Z"/><path id="_路径_21" data-name="&lt;路径&gt;" class="cls-6" d="M31.07,48.88v.55H28.88V48h2.19v.53H29.36v.35Z"/><path id="_路径_22" data-name="&lt;路径&gt;" class="cls-6" d="M33.64,47.11h.47v1.77h1.58v.55h-2Z"/><path id="_路径_23" data-name="&lt;路径&gt;" class="cls-6" d="M31.34,47.11h.46v1.77h1.58v.54h-2Z"/><path id="_路径_24" data-name="&lt;路径&gt;" class="cls-6" d="M24.78,48.07l-.59-1h1.17Z"/><path id="_路径_25" data-name="&lt;路径&gt;" d="M9.59,57.33l.09-.28.23-.72.35-1,.4-1.16L11.07,53c.13-.37.26-.71.36-1l.27-.71.1-.27-.09.28-.24.72c-.1.29-.21.64-.34,1l-.4,1.16-.41,1.16-.37,1-.26.71Z"/><path id="_路径_26" data-name="&lt;路径&gt;" d="M40.22,57.34l-.09-.28-.24-.74-.33-1-.37-1.2-.37-1.2-.31-1.05-.21-.75-.08-.28.09.28.24.74c.1.3.22.66.34,1l.37,1.2.36,1.2.31,1.05.22.74Z"/><path id="_路径_27" data-name="&lt;路径&gt;" class="cls-4" d="M26.17,18.75a20.22,20.22,0,0,0,1.09,6c.7,1.78-1,1.84-1,1.84"/></g><path id="_路径_28" data-name="&lt;路径&gt;" class="cls-11" d="M11.49,16.43a22.34,22.34,0,0,0,5.63-6.84c2.08-4.12,16.33-4.86,19.45.67s3.85,6,3.85,6,1.89-7.11-1.91-11.66C36.4,2.09,32.05-.06,26.71,0,22.33.05,17,1.53,14.84,3.62,10.13,8.22,11.49,16.43,11.49,16.43Z"/><path id="_复合路径_" data-name="&lt;复合路径&gt;" class="cls-11" d="M40.84,20.92c-.23,2-3.73,2.44-4.73,4.11-1.39,2.32-1.5,6-2.76,6.32-2.16.53-1.1-4.32-3-4.5-1.17-.1-4.63.66-7,.08s-2.63,4.35-2.63,4.35c-1.13-.06-2.22-4.72-3.55-6.05a11,11,0,0,0-6.19-3,23.49,23.49,0,0,0,1.88,5.9s5.32,12.05,18.67,7A14.15,14.15,0,0,0,40.84,20.92Zm-13,11.71a.69.69,0,0,0-.23-.38,7.41,7.41,0,0,0-1.12-.78,2.24,2.24,0,0,0-1.35.77.7.7,0,0,0-.21.51h-.19a4,4,0,0,1-3.13-1.56c-.29-.35,1.12-3.2,2.23-2.95a26.35,26.35,0,0,0,5.32.13,5.24,5.24,0,0,1,2.21,2.28C31.74,31.35,30,32.26,27.87,32.63Z"/></g></g></g></g></g></svg>