<svg xmlns="http://www.w3.org/2000/svg" viewBox="0 0 20.32 21.73"><defs><style>.cls-1{fill:#fa8e14;}</style></defs><title>资源 3</title><g id="图层_2" data-name="图层 2"><g id="图层_1-2" data-name="图层 1"><g id="_编组_" data-name="&lt;编组&gt;"><path id="_路径_" data-name="&lt;路径&gt;" class="cls-1" d="M20.32,6.32a1,1,0,0,1-.61,1c-1.64.72-3.26,1.47-4.9,2.19a1,1,0,0,1-1.46-.4c-.35-.59-.25-1,.38-1.41l4.11-2.8a1.29,1.29,0,0,1,1.46-.19A2,2,0,0,1,20.32,6.32Z"/><path id="_路径_2" data-name="&lt;路径&gt;" class="cls-1" d="M0,6.25A1.75,1.75,0,0,1,.62,5a1.11,1.11,0,0,1,1.63-.16Q4.41,6.26,6.54,7.7c.63.42.76.85.43,1.37a1.08,1.08,0,0,1-1.55.45c-1-.42-1.91-.86-2.87-1.29-.64-.29-1.28-.59-1.93-.86A1,1,0,0,1,0,6.25Z"/><path id="_路径_3" data-name="&lt;路径&gt;" class="cls-1" d="M11.66,1.54l-.39,4.89a1,1,0,0,1-1,1c-.67,0-1.09-.24-1.15-.85-.2-1.8-.37-3.6-.52-5.41-.05-.59.45-.81.94-1A1.48,1.48,0,0,1,11.66,1.54Z"/><path id="_路径_4" data-name="&lt;路径&gt;" class="cls-1" d="M11.68,20.39a.94.94,0,0,1-.63,1.14A2.07,2.07,0,0,1,9,21.36a.79.79,0,0,1-.36-.75c.14-1.81.27-3.61.43-5.42.05-.53.47-.8,1.09-.79s1.11.28,1.13.94c0,1,.17,2,.25,2.94C11.57,18.93,11.62,19.58,11.68,20.39Z"/><path id="_路径_5" data-name="&lt;路径&gt;" class="cls-1" d="M20.26,15.46a1.9,1.9,0,0,1-1,1.5,1,1,0,0,1-1.14,0l-4.51-3a.86.86,0,0,1-.26-1.26.9.9,0,0,1,1.31-.47c1.67.72,3.32,1.47,5,2.21A1,1,0,0,1,20.26,15.46Z"/><path id="_路径_6" data-name="&lt;路径&gt;" class="cls-1" d="M0,15.4a.83.83,0,0,1,.57-1C2.29,13.7,4,13,5.64,12.22a.89.89,0,0,1,1.26.45.83.83,0,0,1-.21,1.23c-1.53,1-3,2.06-4.59,3-.77.49-1.94-.27-2.06-1.3A2.08,2.08,0,0,1,0,15.4Z"/></g></g></g></svg>